<svg xmlns="http://www.w3.org/2000/svg" viewBox="120.832 235.52 784.384 546.816" style="max-height: 500px" width="784.384" height="546.816">
  <path fill="#fa3296" d="M353.813 247.688c4.476 4.22 6.314 9.19 8.62 14.796l.784 1.877a526.853 526.853 0 012.22 5.467c2.145 4.353 4.567 6.508 8.563 9.172 2.194.304 2.194.304 4.66.263l2.918.023 3.214-.005 3.408.018c3.788.017 7.577.02 11.365.023 2.709.008 5.417.02 8.125.03 7.372.028 14.744.04 22.116.048 4.603.006 9.206.014 13.808.023a27642.546 27642.546 0 0048.148.057l2.49.002c13.316.008 26.632.043 39.949.09 13.67.047 27.34.072 41.01.074 7.675.002 15.35.013 23.027.05 6.536.03 13.072.04 19.609.024 3.335-.008 6.668-.003 10.003.022 3.618.025 7.233.014 10.85-.007l3.187.049c6.067-.082 9.443-.939 13.823-5.243 1.77-2.115 2.9-4.165 3.915-6.728l1.203-2.868L662 262c3.579-8.995 6.878-14.256 15.5-18.875 28.999-9.1 72.336 11.057 97.74 23.915 20.421 10.756 38.509 25.684 54.76 41.96l2.875 2.734C845.915 324.23 856.407 338.746 866 354l2.043 3.238C880.033 377.223 887.778 399.383 893 422l.879 3.77c2.315 10.322 3.27 20.26 3.275 30.827l.013 3.089c.013 3.391.02 6.782.026 10.173l.025 7.326c.024 7.307.039 14.615.052 21.923l.011 6.206a38972.468 38972.468 0 01.07 47.58l.001 2.242c.013 11.965.046 23.93.088 35.895.042 12.323.066 24.645.071 36.967.004 6.903.015 13.806.048 20.709.031 6.502.037 13.004.025 19.507 0 2.372.008 4.744.025 7.115.191 27.09-5.548 50.917-23.609 71.671l-2.145 2.484c-13.59 14.625-34.958 24.995-54.84 25.864-23.35.543-45.496-3.734-63.015-20.348l-2.535-2.266c-10.36-9.687-16.237-21.768-21.965-34.546-1.129-2.482-2.264-4.96-3.398-7.438l-1.624-3.555a338.053 338.053 0 00-5.603-11.507c-4.812-9.484-9.362-19.09-13.927-28.694l-3.17-6.665c-2.49-5.234-4.978-10.469-7.466-15.704l-1.216-2.56-3.545-7.463-1.157-2.437a3215.59 3215.59 0 01-8.688-18.45 503.951 503.951 0 00-6.518-13.34c-3.34-6.625-6.559-13.302-9.75-20l-1.441-3.002c-1.997-4.16-3.986-8.32-5.868-12.533-5.708-12.36-13.76-21.795-26.129-27.84l-2.173-1.1c-9.453-4.104-19.245-3.462-29.346-3.418-2.071-.005-4.142-.012-6.213-.02a3033.76 3033.76 0 00-16.797 0c-5.875.01-11.75.001-17.624-.005-9.865-.007-19.73.002-29.594.022-11.384.021-22.768.014-34.152-.008-9.795-.018-19.59-.02-29.384-.01-5.841.006-11.682.007-17.523-.006-5.494-.012-10.987-.004-16.48.02a857 857 0 01-6.028-.006c-17.305-.069-31.032 2.64-44.373 14.593-8.092 8.744-12.721 20.658-17.46 31.419-2.731 6.18-5.68 12.22-8.723 18.252-3.4 6.762-6.626 13.601-9.828 20.46-1.73 3.707-3.47 7.412-5.208 11.116l-1.055 2.246c-3.195 6.796-6.453 13.561-9.726 20.32A1662.057 1662.057 0 00315.5 678a2116.455 2116.455 0 01-18.081 38.083 2316.85 2316.85 0 00-2.666 5.498C283.355 745.151 268.629 761.231 244 771c-20.457 7.106-44.764 6.4-64.342-2.838-22.912-11.34-39.862-29.06-48.37-53.361-3.167-9.502-4.438-18.017-4.428-28.03l-.01-3.08c-.008-3.398-.01-6.795-.011-10.193l-.015-7.32c-.013-6.627-.02-13.254-.024-19.88-.003-4.148-.007-8.295-.012-12.442-.012-11.507-.022-23.015-.026-34.522v-4.465a1076883.309 1076883.309 0 00-.003-6.728 21519.73 21519.73 0 00-.045-35.933 20130.4 20130.4 0 01-.037-36.99c0-6.909-.006-13.818-.025-20.727a4912.6 4912.6 0 01-.01-19.537c.001-2.375-.003-4.75-.013-7.124-.085-21.406 2.296-41.29 8.371-61.83l.895-3.113c12.925-41.729 40.267-81.704 74.55-108.832 2.484-1.998 4.832-4.09 7.18-6.243 4.206-3.762 8.603-6.815 13.375-9.812 1.188-.77 2.375-1.541 3.563-2.313 25.005-16.107 51.99-25.828 81.125-31.625l3.143-.64c11.962-2.247 24.845-3.6 34.981 4.265z"/>
</svg>