<svg style="max-height: 500px" viewBox="120.10519944979367 232.91904 786.2150866574966 550.1583360000001" xmlns="http://www.w3.org/2000/svg" width="786.2150866574966" height="550.1583360000001">
  <defs>
    <mask id="recorte-transparente">
      <rect width="1024" height="1024" fill="white"/>
      <path d="M277.607 328.741l2.822-.019 3.04.012 3.127-.005c2.182-.002 4.364.002 6.546.01 3.345.011 6.689 0 10.034-.012 2.118 0 4.237.003 6.355.007l3.04-.012 2.822.02c.819 0 1.638.002 2.482.004C320 329 320 329 323 331c.36 2.215.36 2.215.34 5v3.155l-.047 3.415-.013 3.49c-.017 3.688-.054 7.376-.093 11.065-.015 2.496-.028 4.992-.04 7.488-.034 6.13-.084 12.258-.147 18.387l1.916-.013c6.57-.045 13.14-.075 19.709-.097 2.453-.01 4.906-.024 7.36-.04 3.521-.025 7.043-.036 10.566-.045l3.333-.032h3.094l2.725-.014C374 383 374 383 377 385c.381 2.08.381 2.08.388 4.677l.029 2.943-.019 3.189.01 3.265c.001 2.283-.004 4.565-.017 6.847-.016 3.499 0 6.996.02 10.495-.003 2.214-.007 4.428-.013 6.643l.019 3.182-.029 2.952-.007 2.6C377 434 377 434 375.79 435.778c-2.389 1.63-3.93 1.583-6.812 1.562l-3.094-.001-3.333-.047-3.418-.013c-3.607-.017-7.213-.054-10.82-.093a6488.51 6488.510 0 00-7.33-.04c-5.995-.034-11.989-.084-17.983-.147l.013 1.916c.045 6.57.075 13.14.097 19.709.01 2.453.024 4.906.04 7.36.025 3.521.036 7.043.045 10.566l.032 3.333v3.094l.014 2.725C323 488 323 488 321 491c-2.043.381-2.043.381-4.586.388l-2.882.029-3.122-.019-3.198.01c-2.235.001-4.47-.004-6.706-.017-3.426-.016-6.851 0-10.277.02-2.17-.003-4.338-.007-6.506-.013l-3.116.019-2.892-.029-2.545-.007C273 491 273 491 271.227 489.79c-1.637-2.389-1.589-3.927-1.568-6.812l.001-3.094.047-3.333.013-3.418c.017-3.607.054-7.213.092-10.82.016-2.444.03-4.887.042-7.33.033-5.995.083-11.989.146-17.983l-1.916.02c-6.57.066-13.139.112-19.709.145-2.453.015-4.906.035-7.36.061-3.521.037-7.043.054-10.566.067l-3.333.047h-3.094l-2.725.02C219 437 219 437 217.209 435.78c-1.58-2.326-1.583-3.785-1.581-6.587l-.02-2.952.029-3.182-.002-3.269c.003-2.28.012-4.561.029-6.842.023-3.5.02-7 .014-10.5.005-2.214.012-4.427.021-6.64l-.003-3.188.03-2.943.013-2.596C216 385 216 385 218 383c2.215-.24 2.215-.24 5-.227h3.155l3.415.032 3.49.008c3.688.011 7.376.037 11.065.062 2.496.01 4.992.02 7.488.027 6.13.022 12.258.056 18.387.098l-.02-1.96c-.066-6.716-.112-13.431-.145-20.147a1716.1 1716.100 0 00-.061-7.525c-.037-3.6-.054-7.198-.067-10.798-.015-1.127-.03-2.254-.047-3.415V336l-.02-2.785L270 331c3.179-2.12 3.967-2.252 7.607-2.259zM747.035 446.25c5.725 4.429 10.713 11.54 11.965 18.75.915 10.231-.678 18.318-7.313 26.313-6.868 7.248-13.243 10.593-23.375 11.187-9.121-.194-16.516-4.205-22.812-10.688-5.508-6.839-8.257-14.612-7.813-23.41C698.755 460.2 702.12 453.837 708 448c12.004-8.933 26.12-9.683 39.035-1.75zm-3.66-125.656c7.868 4.215 12.798 10.925 15.625 19.406.668 8.524.514 15.61-4 23l-1.133 1.926c-4.229 6.54-9.987 10.371-17.418 12.566-8.454 1.753-15.918.749-23.449-3.492-7.813-5.414-13.21-12.565-15-22-.919-8.355.74-15.288 5.543-22.23 10.56-12.88 24.68-16.279 39.832-9.176zm-55.187 64.844c6.624 5.219 11.16 11.82 12.32 20.253.335 11.074-1.936 19.487-9.578 27.622-3.012 2.633-6.234 4.223-9.93 5.687l-2.387 1.078c-7.32 2.583-15.365 1.432-22.297-1.762-8.327-4.732-13.054-11.141-15.93-20.261-1.443-7.673-1.13-16.107 2.614-23.055 10.792-15.429 29.048-20.169 45.188-9.563zm115.714-1.594c7.272 3.691 11.658 9.771 14.403 17.347 1.914 7.734 1.73 15.61-1.97 22.747C810.8 432.486 804.113 438.82 794 441c-9.607 1.164-17.601-1.064-25.25-7-6.883-6.603-10.09-14.198-10.375-23.688.422-9.18 3.163-15.742 9.453-22.449 11.353-9.74 23.002-9.817 36.074-4.02z" fill="black"/>
    </mask>
  </defs>

  <path d="M353.813 247.688c4.476 4.22 6.314 9.19 8.62 14.796l.784 1.877a526.853 526.853 0 012.22 5.467c2.025 4.109 3.795 6.385 8.01 8.26 4.897 1.257 9.555 1.201 14.592 1.193l3.378.018c3.738.017 7.476.02 11.214.023l8.037.03c7.279.027 14.558.04 21.836.048 4.546.006 9.092.014 13.638.023 12.591.025 25.182.045 37.772.052l2.44.001 2.446.002a648630.726 648630.726 0 017.365.004c13.15.008 26.302.043 39.453.09 13.507.047 27.014.072 40.521.074 7.582.002 15.164.013 22.746.05 6.454.03 12.908.04 19.362.024a996.64 996.64 0 019.876.022c3.571.025 7.14.014 10.711-.007l3.145.049c6.034-.083 9.368-.97 13.726-5.243 1.776-2.114 2.903-4.164 3.92-6.728l1.203-2.868L662 262c3.579-8.995 6.878-14.256 15.5-18.875 28.999-9.1 72.336 11.057 97.74 23.915 20.421 10.756 38.509 25.684 54.76 41.96l2.875 2.734C845.915 324.23 856.407 338.746 866 354l2.043 3.238C880.033 377.223 887.778 399.383 893 422l.879 3.77c2.315 10.322 3.27 20.26 3.275 30.827l.013 3.089c.013 3.391.02 6.782.026 10.173l.025 7.326c.024 7.307.039 14.615.052 21.923l.011 6.206a38972.468 38972.468 0 01.07 47.58l.001 2.242c.013 11.965.046 23.93.088 35.895.042 12.323.066 24.645.071 36.967.004 6.903.015 13.806.048 20.709.031 6.502.037 13.004.025 19.507 0 2.372.008 4.744.025 7.115.191 27.09-5.548 50.917-23.609 71.671l-2.145 2.484c-13.59 14.625-34.958 24.995-54.84 25.864-23.35.543-45.496-3.734-63.015-20.348l-2.535-2.266c-10.36-9.687-16.237-21.768-21.965-34.546-1.129-2.482-2.264-4.96-3.398-7.438l-1.624-3.555a338.053 338.053 0 00-5.603-11.507c-4.812-9.484-9.362-19.09-13.927-28.694l-3.17-6.665c-2.49-5.234-4.978-10.469-7.466-15.704l-1.216-2.56-3.545-7.463-1.157-2.437a3215.59 3215.59 0 01-8.688-18.45 503.951 503.951 0 00-6.519-13.34c-3.339-6.625-6.558-13.302-9.75-20l-1.44-3.002c-1.997-4.16-3.986-8.32-5.868-12.533-5.708-12.36-13.76-21.795-26.129-27.84l-2.173-1.1c-9.453-4.104-19.245-3.462-29.346-3.418-2.071-.005-4.142-.012-6.213-.02a3033.76 3033.76 0 00-16.797 0c-5.875.01-11.75.001-17.624-.005-9.865-.007-19.73.002-29.594.022-11.384.021-22.768.014-34.152-.008-9.795-.018-19.59-.02-29.384-.01-5.841.006-11.682.007-17.523-.006-5.494-.012-10.987-.004-16.48.02a857 857 0 01-6.028-.006c-17.305-.069-31.032 2.64-44.374 14.593-8.09 8.744-12.72 20.658-17.46 31.419-2.73 6.18-5.68 12.22-8.722 18.252-3.4 6.762-6.626 13.601-9.828 20.46-1.73 3.707-3.47 7.412-5.208 11.116l-1.055 2.246a1939.35 1939.35 0 01-9.727 20.32A1662.057 1662.057 0 00315.5 678a2116.455 2116.455 0 01-18.081 38.083 2316.85 2316.85 0 00-2.666 5.498C283.355 745.151 268.629 761.231 244 771c-20.457 7.106-44.764 6.4-64.342-2.838-22.912-11.34-39.862-29.06-48.37-53.361-3.167-9.502-4.438-18.017-4.428-28.03l-.01-3.08c-.008-3.398-.01-6.795-.011-10.193l-.015-7.32c-.013-6.627-.02-13.254-.024-19.88-.003-4.148-.007-8.295-.012-12.442-.012-11.507-.022-23.015-.026-34.522v-4.465a1076883.309 1076883.309 0 00-.003-6.728 21519.73 21519.73 0 00-.045-35.933 20130.4 20130.4 0 01-.037-36.99c0-6.909-.006-13.818-.025-20.727a4912.6 4912.6 0 01-.01-19.537c.001-2.375-.003-4.75-.013-7.124-.085-21.406 2.296-41.29 8.371-61.83l.895-3.113c12.925-41.729 40.267-81.704 74.55-108.832 2.484-1.998 4.832-4.09 7.18-6.243 4.206-3.762 8.603-6.815 13.375-9.812 1.188-.77 2.375-1.541 3.562-2.313 25.006-16.107 51.992-25.828 81.125-31.625l3.144-.64c11.962-2.247 24.845-3.6 34.981 4.265z" fill="#fff" mask="url(#recorte-transparente)"/>
</svg>